<?xml version="1.0" standalone="no"?>
<!DOCTYPE svg PUBLIC "-//W3C//DTD SVG 20010904//EN"
 "http://www.w3.org/TR/2001/REC-SVG-20010904/DTD/svg10.dtd">
<svg version="1.0" xmlns="http://www.w3.org/2000/svg"
 width="460.000000pt" height="460.000000pt" viewBox="0 0 460.000000 460.000000"
 preserveAspectRatio="xMidYMid meet">
<metadata>
Created by potrace 1.16, written by Peter Selinger 2001-2019
</metadata>
<g transform="translate(0.000000,460.000000) scale(0.100000,-0.100000)"
fill="#000000" stroke="none">
<path d="M200 3700 l0 -700 700 0 700 0 0 700 0 700 -700 0 -700 0 0 -700z
m1200 0 l0 -500 -500 0 -500 0 0 500 0 500 500 0 500 0 0 -500z"/>
<path d="M600 3700 l0 -300 300 0 300 0 0 300 0 300 -300 0 -300 0 0 -300z"/>
<path d="M2000 4300 l0 -100 -100 0 -100 0 0 -200 0 -200 200 0 200 0 0 100 0
100 -100 0 -100 0 0 100 0 100 300 0 300 0 0 -100 0 -100 -100 0 -100 0 0
-100 0 -100 200 0 200 0 0 300 0 300 -400 0 -400 0 0 -100z"/>
<path d="M3000 3700 l0 -700 700 0 700 0 0 700 0 700 -700 0 -700 0 0 -700z
m1200 0 l0 -500 -500 0 -500 0 0 500 0 500 500 0 500 0 0 -500z"/>
<path d="M3400 3700 l0 -300 300 0 300 0 0 300 0 300 -300 0 -300 0 0 -300z"/>
<path d="M1800 3200 l0 -400 -200 0 -200 0 0 -100 0 -100 200 0 200 0 0 -100
0 -100 100 0 100 0 0 100 0 100 -100 0 -100 0 0 100 0 100 200 0 200 0 0 -100
0 -100 200 0 200 0 0 -200 0 -200 200 0 200 0 0 100 0 100 -100 0 -100 0 0
400 0 400 -100 0 -100 0 0 -200 0 -200 -100 0 -100 0 0 200 0 200 -100 0 -100
0 0 100 0 100 300 0 300 0 0 100 0 100 -300 0 -300 0 0 -100 0 -100 -100 0
-100 0 0 100 0 100 -100 0 -100 0 0 -400z m400 -100 l0 -100 -100 0 -100 0 0
100 0 100 100 0 100 0 0 -100z"/>
<path d="M200 2700 l0 -100 200 0 200 0 0 -100 0 -100 -100 0 -100 0 0 -100 0
-100 300 0 300 0 0 -100 0 -100 200 0 200 0 0 -100 0 -100 200 0 200 0 0 -200
0 -200 400 0 400 0 0 -100 0 -100 200 0 200 0 0 -100 0 -100 100 0 100 0 0
100 0 100 200 0 200 0 0 200 0 200 -100 0 -100 0 0 200 0 200 -600 0 -600 0 0
100 0 100 100 0 100 0 0 100 0 100 -100 0 -100 0 0 -100 0 -100 -200 0 -200 0
0 -100 0 -100 -200 0 -200 0 0 100 0 100 100 0 100 0 0 100 0 100 -100 0 -100
0 0 -100 0 -100 -200 0 -200 0 0 100 0 100 -100 0 -100 0 0 100 0 100 100 0
100 0 0 100 0 100 -100 0 -100 0 0 -100 0 -100 -100 0 -100 0 0 100 0 100
-200 0 -200 0 0 -100z m1800 -800 l0 -100 -100 0 -100 0 0 100 0 100 100 0
100 0 0 -100z m600 -200 l0 -100 100 0 100 0 0 100 0 100 200 0 200 0 0 -100
0 -100 100 0 100 0 0 -100 0 -100 -100 0 -100 0 0 -100 0 -100 -100 0 -100 0
0 200 0 200 -100 0 -100 0 0 -100 0 -100 -100 0 -100 0 0 100 0 100 -100 0
-100 0 0 100 0 100 100 0 100 0 0 -100z"/>
<path d="M3000 2700 l0 -100 100 0 100 0 0 -200 0 -200 100 0 100 0 0 100 0
100 300 0 300 0 0 -100 0 -100 100 0 100 0 0 -200 0 -200 -100 0 -100 0 0
-100 0 -100 -100 0 -100 0 0 -100 0 -100 100 0 100 0 0 -100 0 -100 -100 0
-100 0 0 -100 0 -100 -100 0 -100 0 0 -100 0 -100 100 0 100 0 0 100 0 100
100 0 100 0 0 -100 0 -100 100 0 100 0 0 -200 0 -200 100 0 100 0 0 300 0 300
-200 0 -200 0 0 100 0 100 100 0 100 0 0 100 0 100 -100 0 -100 0 0 100 0 100
200 0 200 0 0 300 0 300 -100 0 -100 0 0 100 0 100 100 0 100 0 0 100 0 100
-100 0 -100 0 0 100 0 100 -200 0 -200 0 0 -100 0 -100 -100 0 -100 0 0 100 0
100 -300 0 -300 0 0 -100z"/>
<path d="M3600 2100 l0 -100 100 0 100 0 0 100 0 100 -100 0 -100 0 0 -100z"/>
<path d="M200 1900 l0 -100 100 0 100 0 0 100 0 100 -100 0 -100 0 0 -100z"/>
<path d="M600 1900 l0 -100 100 0 100 0 0 100 0 100 -100 0 -100 0 0 -100z"/>
<path d="M200 900 l0 -700 700 0 700 0 0 700 0 700 -700 0 -700 0 0 -700z
m1200 0 l0 -500 -500 0 -500 0 0 500 0 500 500 0 500 0 0 -500z"/>
<path d="M600 900 l0 -300 300 0 300 0 0 300 0 300 -300 0 -300 0 0 -300z"/>
<path d="M2000 1100 l0 -100 -100 0 -100 0 0 -100 0 -100 100 0 100 0 0 100 0
100 200 0 200 0 0 -100 0 -100 200 0 200 0 0 100 0 100 -200 0 -200 0 0 100 0
100 -200 0 -200 0 0 -100z"/>
<path d="M3000 700 l0 -100 -400 0 -400 0 0 -100 0 -100 200 0 200 0 0 -100 0
-100 100 0 100 0 0 100 0 100 100 0 100 0 0 -100 0 -100 200 0 200 0 0 100 0
100 200 0 200 0 0 100 0 100 -200 0 -200 0 0 100 0 100 -200 0 -200 0 0 -100z
m400 -200 l0 -100 -100 0 -100 0 0 100 0 100 100 0 100 0 0 -100z"/>
<path d="M1800 400 l0 -200 100 0 100 0 0 200 0 200 -100 0 -100 0 0 -200z"/>
</g>
</svg>
